<svg width="50" height="38" viewBox="0 0 50 38" fill="none" xmlns="http://www.w3.org/2000/svg">
<path d="M15.4855 29.2132L17.6618 25.279C16.0435 24.1071 14.7786 22.6283 13.8672 20.8426C12.9557 19.0569 12.5 17.1689 12.5 15.1786C12.5 12.9278 13.0673 10.8352 14.202 8.90067C9.94234 11.077 6.39881 14.3601 3.57143 18.75C6.67783 23.5491 10.6492 27.0368 15.4855 29.2132ZM26.3393 8.03571C26.3393 7.66369 26.2091 7.34747 25.9487 7.08705C25.6882 6.82664 25.372 6.69643 25 6.69643C22.6749 6.69643 20.6799 7.52883 19.0151 9.19364C17.3503 10.8584 16.5179 12.8534 16.5179 15.1786C16.5179 15.5506 16.6481 15.8668 16.9085 16.1272C17.1689 16.3876 17.4851 16.5179 17.8571 16.5179C18.2292 16.5179 18.5454 16.3876 18.8058 16.1272C19.0662 15.8668 19.1964 15.5506 19.1964 15.1786C19.1964 13.5789 19.7638 12.2117 20.8984 11.077C22.0331 9.94234 23.4003 9.375 25 9.375C25.372 9.375 25.6882 9.24479 25.9487 8.98437C26.2091 8.72396 26.3393 8.40774 26.3393 8.03571ZM36.4676 2.70647C36.4676 2.83668 36.4583 2.92039 36.4397 2.95759C34.4866 6.45461 31.5569 11.7187 27.6507 18.75C23.7444 25.7812 20.8054 31.0547 18.8337 34.5703L17.4665 37.0536C17.2805 37.3512 17.0201 37.5 16.6853 37.5C16.4621 37.5 15.2158 36.849 12.9464 35.5469C12.6488 35.3609 12.5 35.1004 12.5 34.7656C12.5 34.5424 12.9092 33.7333 13.7277 32.3382C11.0677 31.1291 8.617 29.5201 6.37556 27.5112C4.13411 25.5022 2.19494 23.2236 0.558036 20.6752C0.186012 20.0986 0 19.4568 0 18.75C0 18.0432 0.186012 17.4014 0.558036 16.8248C3.40402 12.4535 6.93824 9.00298 11.1607 6.47321C15.3832 3.94345 19.9963 2.67857 25 2.67857C26.6555 2.67857 28.3296 2.83668 30.0223 3.1529L31.529 0.446429C31.715 0.14881 31.9754 0 32.3103 0C32.4033 0 32.5707 0.0558036 32.8125 0.167411C33.0543 0.279018 33.3426 0.423177 33.6775 0.599888C34.0123 0.7766 34.3192 0.948661 34.5982 1.11607C34.8772 1.28348 35.1702 1.45554 35.4771 1.63225C35.784 1.80897 35.9654 1.91592 36.0212 1.95312C36.3188 2.13914 36.4676 2.39025 36.4676 2.70647ZM37.5 15.1786C37.5 17.7641 36.7653 20.1218 35.2958 22.2517C33.8263 24.3815 31.8824 25.9115 29.4643 26.8415L37.2768 12.8348C37.4256 13.6719 37.5 14.4531 37.5 15.1786ZM50 18.75C50 19.401 49.814 20.0428 49.442 20.6752C48.7165 21.8657 47.7028 23.2143 46.4007 24.721C43.6105 27.9204 40.3785 30.4036 36.7048 32.1708C33.0311 33.9379 29.1295 34.8214 25 34.8214L27.0647 31.1384C31.0082 30.8036 34.6587 29.5294 38.0162 27.3158C41.3737 25.1023 44.1778 22.247 46.4286 18.75C44.2894 15.4204 41.6667 12.686 38.5603 10.5469L40.3181 7.42187C42.0852 8.61235 43.7826 10.0353 45.4102 11.6908C47.0378 13.3464 48.3817 15.0577 49.442 16.8248C49.814 17.4572 50 18.099 50 18.75Z" fill="black"/>
</svg>
