<svg width="59" height="58" viewBox="0 0 59 58" fill="none" xmlns="http://www.w3.org/2000/svg">
<path d="M29.4998 0.299988C13.3741 0.299988 0.299805 13.3743 0.299805 29.5C0.299805 43.1826 9.72167 54.6315 22.4237 57.7997C22.2874 57.4055 22.1998 56.948 22.1998 56.381V51.3903C21.0148 51.3903 19.0292 51.3903 18.5303 51.3903C16.5326 51.3903 14.7562 50.5313 13.8948 48.935C12.9385 47.1611 12.7731 44.448 10.403 42.7884C9.69977 42.2361 10.2351 41.6058 11.0454 41.691C12.5419 42.1144 13.7829 43.1413 14.9509 44.6645C16.114 46.1902 16.6615 46.5358 18.8345 46.5358C19.8881 46.5358 21.4649 46.4749 22.9493 46.2413C23.7474 44.2144 25.1271 42.348 26.8134 41.4671C17.0898 40.467 12.4494 35.6296 12.4494 29.062C12.4494 26.2345 13.6539 23.4994 15.7004 21.195C15.0288 18.9077 14.1844 14.243 15.9583 12.4667C20.3334 12.4667 22.9785 15.3039 23.6136 16.0704C25.7938 15.3234 28.1882 14.9 30.7043 14.9C33.2252 14.9 35.6294 15.3234 37.8145 16.0753C38.4423 15.3137 41.0898 12.4667 45.4746 12.4667C47.2558 14.2454 46.4017 18.9296 45.7228 21.2121C47.7571 23.5116 48.9543 26.2393 48.9543 29.062C48.9543 35.6247 44.3212 40.4597 34.6122 41.4647C37.284 42.859 39.2331 46.7767 39.2331 49.7283V56.381C39.2331 56.6341 39.1772 56.8166 39.148 57.0332C50.5262 53.0449 58.6998 42.2409 58.6998 29.5C58.6998 13.3743 45.6255 0.299988 29.4998 0.299988Z" fill="black"/>
</svg>
