<svg width="55" height="55" viewBox="0 0 55 55" fill="none" xmlns="http://www.w3.org/2000/svg">
<path d="M5.60007 0.733337C2.91123 0.733337 0.733398 2.91117 0.733398 5.6V49.4C0.733398 52.0888 2.91123 54.2667 5.60007 54.2667H49.4001C52.0889 54.2667 54.2667 52.0888 54.2667 49.4V5.6C54.2667 2.91117 52.0889 0.733337 49.4001 0.733337H5.60007ZM12.0446 12.9H23.2655L29.8146 22.2626L37.9178 12.9H41.449L31.402 24.5344L43.6922 42.1H32.4713L25.2046 31.7108L16.2316 42.1H12.6434L23.6077 29.4343L12.0446 12.9ZM17.4721 15.7801L33.9066 39.2057H38.26L21.8207 15.7801H17.4721Z" fill="black"/>
</svg>
